<?xml version="1.0" encoding="UTF-8"?>
<?xml-stylesheet href="https://cdnjs.cloudflare.com/ajax/libs/font-awesome/6.5.1/css/all.min.css" type="text/css"?>
<svg aria-roledescription="flowchart-v2" role="graphics-document document" viewBox="0.0284881591796875 0 76.05697250366211 76" style="max-width: 100%; max-height: 100%; background: transparent;" class="flowchart" xmlns="http://www.w3.org/2000/svg" width="100%" id="mermaid-image-editor"><style>#mermaid-image-editor{font-family:"trebuchet ms",verdana,arial,sans-serif;font-size:16px;fill:#333;}#mermaid-image-editor .error-icon{fill:#552222;}#mermaid-image-editor .error-text{fill:#552222;stroke:#552222;}#mermaid-image-editor .edge-thickness-normal{stroke-width:1px;}#mermaid-image-editor .edge-thickness-thick{stroke-width:3.5px;}#mermaid-image-editor .edge-pattern-solid{stroke-dasharray:0;}#mermaid-image-editor .edge-thickness-invisible{stroke-width:0;fill:none;}#mermaid-image-editor .edge-pattern-dashed{stroke-dasharray:3;}#mermaid-image-editor .edge-pattern-dotted{stroke-dasharray:2;}#mermaid-image-editor .marker{fill:#333333;stroke:#333333;}#mermaid-image-editor .marker.cross{stroke:#333333;}#mermaid-image-editor svg{font-family:"trebuchet ms",verdana,arial,sans-serif;font-size:16px;}#mermaid-image-editor p{margin:0;}#mermaid-image-editor .label{font-family:"trebuchet ms",verdana,arial,sans-serif;color:#333;}#mermaid-image-editor .cluster-label text{fill:#333;}#mermaid-image-editor .cluster-label span{color:#333;}#mermaid-image-editor .cluster-label span p{background-color:transparent;}#mermaid-image-editor .label text,#mermaid-image-editor span{fill:#333;color:#333;}#mermaid-image-editor .node rect,#mermaid-image-editor .node circle,#mermaid-image-editor .node ellipse,#mermaid-image-editor .node polygon,#mermaid-image-editor .node path{fill:#ECECFF;stroke:#9370DB;stroke-width:1px;}#mermaid-image-editor .rough-node .label text,#mermaid-image-editor .node .label text,#mermaid-image-editor .image-shape .label,#mermaid-image-editor .icon-shape .label{text-anchor:middle;}#mermaid-image-editor .node .katex path{fill:#000;stroke:#000;stroke-width:1px;}#mermaid-image-editor .rough-node .label,#mermaid-image-editor .node .label,#mermaid-image-editor .image-shape .label,#mermaid-image-editor .icon-shape .label{text-align:center;}#mermaid-image-editor .node.clickable{cursor:pointer;}#mermaid-image-editor .root .anchor path{fill:#333333!important;stroke-width:0;stroke:#333333;}#mermaid-image-editor .arrowheadPath{fill:#333333;}#mermaid-image-editor .edgePath .path{stroke:#333333;stroke-width:2.0px;}#mermaid-image-editor .flowchart-link{stroke:#333333;fill:none;}#mermaid-image-editor .edgeLabel{background-color:rgba(232,232,232, 0.8);text-align:center;}#mermaid-image-editor .edgeLabel p{background-color:rgba(232,232,232, 0.8);}#mermaid-image-editor .edgeLabel rect{opacity:0.5;background-color:rgba(232,232,232, 0.8);fill:rgba(232,232,232, 0.8);}#mermaid-image-editor .labelBkg{background-color:rgba(232, 232, 232, 0.5);}#mermaid-image-editor .cluster rect{fill:#ffffde;stroke:#aaaa33;stroke-width:1px;}#mermaid-image-editor .cluster text{fill:#333;}#mermaid-image-editor .cluster span{color:#333;}#mermaid-image-editor div.mermaidTooltip{position:absolute;text-align:center;max-width:200px;padding:2px;font-family:"trebuchet ms",verdana,arial,sans-serif;font-size:12px;background:hsl(80, 100%, 96.2745098039%);border:1px solid #aaaa33;border-radius:2px;pointer-events:none;z-index:100;}#mermaid-image-editor .flowchartTitleText{text-anchor:middle;font-size:18px;fill:#333;}#mermaid-image-editor rect.text{fill:none;stroke-width:0;}#mermaid-image-editor .icon-shape,#mermaid-image-editor .image-shape{background-color:rgba(232,232,232, 0.8);text-align:center;}#mermaid-image-editor .icon-shape p,#mermaid-image-editor .image-shape p{background-color:rgba(232,232,232, 0.8);padding:2px;}#mermaid-image-editor .icon-shape rect,#mermaid-image-editor .image-shape rect{opacity:0.5;background-color:rgba(232,232,232, 0.8);fill:rgba(232,232,232, 0.8);}#mermaid-image-editor :root{--mermaid-font-family:"trebuchet ms",verdana,arial,sans-serif;}</style><g><marker orient="auto" markerHeight="8" markerWidth="8" markerUnits="userSpaceOnUse" refY="5" refX="5" viewBox="0 0 10 10" class="marker flowchart-v2" id="mermaid-image-editor_flowchart-v2-pointEnd"><path style="stroke-width: 1; stroke-dasharray: 1, 0;" class="arrowMarkerPath" d="M 0 0 L 10 5 L 0 10 z"></path></marker><marker orient="auto" markerHeight="8" markerWidth="8" markerUnits="userSpaceOnUse" refY="5" refX="4.5" viewBox="0 0 10 10" class="marker flowchart-v2" id="mermaid-image-editor_flowchart-v2-pointStart"><path style="stroke-width: 1; stroke-dasharray: 1, 0;" class="arrowMarkerPath" d="M 0 5 L 10 10 L 10 0 z"></path></marker><marker orient="auto" markerHeight="11" markerWidth="11" markerUnits="userSpaceOnUse" refY="5" refX="11" viewBox="0 0 10 10" class="marker flowchart-v2" id="mermaid-image-editor_flowchart-v2-circleEnd"><circle style="stroke-width: 1; stroke-dasharray: 1, 0;" class="arrowMarkerPath" r="5" cy="5" cx="5"></circle></marker><marker orient="auto" markerHeight="11" markerWidth="11" markerUnits="userSpaceOnUse" refY="5" refX="-1" viewBox="0 0 10 10" class="marker flowchart-v2" id="mermaid-image-editor_flowchart-v2-circleStart"><circle style="stroke-width: 1; stroke-dasharray: 1, 0;" class="arrowMarkerPath" r="5" cy="5" cx="5"></circle></marker><marker orient="auto" markerHeight="11" markerWidth="11" markerUnits="userSpaceOnUse" refY="5.2" refX="12" viewBox="0 0 11 11" class="marker cross flowchart-v2" id="mermaid-image-editor_flowchart-v2-crossEnd"><path style="stroke-width: 2; stroke-dasharray: 1, 0;" class="arrowMarkerPath" d="M 1,1 l 9,9 M 10,1 l -9,9"></path></marker><marker orient="auto" markerHeight="11" markerWidth="11" markerUnits="userSpaceOnUse" refY="5.2" refX="-1" viewBox="0 0 11 11" class="marker cross flowchart-v2" id="mermaid-image-editor_flowchart-v2-crossStart"><path style="stroke-width: 2; stroke-dasharray: 1, 0;" class="arrowMarkerPath" d="M 1,1 l 9,9 M 10,1 l -9,9"></path></marker><g class="root"><g class="clusters"></g><g class="edgePaths"></g><g class="edgeLabels"></g><g class="nodes"><g transform="translate(38.028486251831055, 38)" id="flowchart-n14-849" class="node default"><g><path style="" fill="#ECECFF" stroke-width="0" stroke="none" d="M30 0 C30 1.7364817766693033, 29.8457694864367 3.4993446133795656, 29.544232590366242 5.2094453300079095 C29.242695694295783 6.9195460466362535, 28.7846903697161 8.628845188104714, 28.190778623577252 10.260604299770062 C27.596866877438405 11.89236341143541, 26.849003001867814 13.496162668195646, 25.98076211353316 14.999999999999998 C25.112521225198506 16.503837331804352, 24.097522264058835 17.953406075001286, 22.98133329356934 19.283628290596177 C21.865144323079843 20.613850506191067, 20.61385050619107 21.865144323079843, 19.28362829059618 22.98133329356934 C17.95340607500129 24.097522264058835, 16.503837331804355 25.112521225198506, 15.000000000000004 25.980762113533157 C13.496162668195652 26.849003001867807, 11.892363411435413 27.5968668774384, 10.260604299770065 28.19077862357725 C8.628845188104718 28.784690369716095, 6.919546046636256 29.242695694295783, 5.209445330007912 29.544232590366242 C3.4993446133795683 29.8457694864367, 1.7364817766693055 30, 1.83697019872103e-15 30 C-1.736481776669302 30, -3.4993446133795656 29.8457694864367, -5.2094453300079095 29.544232590366242 C-6.9195460466362535 29.242695694295783, -8.628845188104714 28.7846903697161, -10.260604299770062 28.190778623577252 C-11.89236341143541 27.596866877438405, -13.496162668195641 26.84900300186781, -14.999999999999993 25.98076211353316 C-16.503837331804345 25.11252122519851, -17.95340607500128 24.097522264058846, -19.28362829059617 22.98133329356935 C-20.61385050619106 21.865144323079853, -21.865144323079836 20.61385050619108, -22.98133329356933 19.283628290596194 C-24.097522264058828 17.953406075001308, -25.1125212251985 16.503837331804373, -25.98076211353315 15.000000000000023 C-26.8490030018678 13.496162668195673, -27.59686687743839 11.892363411435438, -28.190778623577238 10.260604299770092 C-28.784690369716085 8.628845188104746, -29.242695694295776 6.919546046636289, -29.544232590366235 5.209445330007948 C-29.845769486436694 3.4993446133796065, -29.999999999999996 1.7364817766693452, -30 4.3641969283947696e-14 C-30.000000000000004 -1.7364817766692577, -29.845769486436705 -3.4993446133795194, -29.54423259036625 -5.209445330007862 C-29.242695694295794 -6.919546046636204, -28.784690369716113 -8.628845188104663, -28.19077862357727 -10.26060429977001 C-27.596866877438426 -11.892363411435358, -26.84900300186784 -13.496162668195595, -25.980762113533192 -14.999999999999947 C-25.112521225198545 -16.5038373318043, -24.09752226405888 -17.953406075001233, -22.981333293569385 -19.283628290596127 C-21.86514432307989 -20.61385050619102, -20.613850506191113 -21.8651443230798, -19.283628290596226 -22.9813332935693 C-17.95340607500134 -24.0975222640588, -16.503837331804405 -25.11252122519847, -15.000000000000057 -25.980762113533125 C-13.496162668195709 -26.84900300186778, -11.892363411435475 -27.596866877438377, -10.260604299770131 -28.190778623577227 C-8.628845188104787 -28.784690369716078, -6.91954604663633 -29.242695694295765, -5.209445330007989 -29.544232590366228 C-3.4993446133796473 -29.84576948643669, -1.736481776669387 -29.999999999999996, -8.544696836917437e-14 -30 C1.736481776669216 -30.000000000000004, 3.4993446133794777 -29.84576948643671, 5.20944533000782 -29.544232590366256 C6.919546046636162 -29.242695694295804, 8.628845188104622 -28.784690369716127, 10.26060429976997 -28.190778623577287 C11.892363411435317 -27.596866877438448, 13.496162668195556 -26.849003001867857, 14.99999999999991 -25.98076211353321 C16.503837331804263 -25.112521225198563, 17.9534060750012 -24.0975222640589, 19.283628290596095 -22.98133329356941 C20.61385050619099 -21.86514432307992, 21.865144323079768 -20.613850506191152, 22.981333293569268 -19.28362829059627 C24.097522264058767 -17.953406075001386, 25.11252122519844 -16.503837331804455, 25.980762113533096 -15.000000000000107 C26.849003001867754 -13.496162668195758, 27.59686687743835 -11.892363411435527, 28.190778623577206 -10.260604299770183 C28.78469036971606 -8.628845188104838, 29.24269569429575 -6.919546046636383, 29.544232590366217 -5.209445330008043 C29.845769486436684 -3.4993446133797024, 29.924038765061034 -0.8682408883348144, 30 -1.405746437499029e-13 C30.075961234938966 0.8682408883345333, 30.07596123493896 -0.8682408883346749, 30 0"></path><path style="" fill="none" stroke-width="1.3" stroke="#9370DB" d="M30 0 C30 1.7364817766693033, 29.8457694864367 3.4993446133795656, 29.544232590366242 5.2094453300079095 C29.242695694295783 6.9195460466362535, 28.7846903697161 8.628845188104714, 28.190778623577252 10.260604299770062 C27.596866877438405 11.89236341143541, 26.849003001867814 13.496162668195646, 25.98076211353316 14.999999999999998 C25.112521225198506 16.503837331804352, 24.097522264058835 17.953406075001286, 22.98133329356934 19.283628290596177 C21.865144323079843 20.613850506191067, 20.61385050619107 21.865144323079843, 19.28362829059618 22.98133329356934 C17.95340607500129 24.097522264058835, 16.503837331804355 25.112521225198506, 15.000000000000004 25.980762113533157 C13.496162668195652 26.849003001867807, 11.892363411435413 27.5968668774384, 10.260604299770065 28.19077862357725 C8.628845188104718 28.784690369716095, 6.919546046636256 29.242695694295783, 5.209445330007912 29.544232590366242 C3.4993446133795683 29.8457694864367, 1.7364817766693055 30, 1.83697019872103e-15 30 C-1.736481776669302 30, -3.4993446133795656 29.8457694864367, -5.2094453300079095 29.544232590366242 C-6.9195460466362535 29.242695694295783, -8.628845188104714 28.7846903697161, -10.260604299770062 28.190778623577252 C-11.89236341143541 27.596866877438405, -13.496162668195641 26.84900300186781, -14.999999999999993 25.98076211353316 C-16.503837331804345 25.11252122519851, -17.95340607500128 24.097522264058846, -19.28362829059617 22.98133329356935 C-20.61385050619106 21.865144323079853, -21.865144323079836 20.61385050619108, -22.98133329356933 19.283628290596194 C-24.097522264058828 17.953406075001308, -25.1125212251985 16.503837331804373, -25.98076211353315 15.000000000000023 C-26.8490030018678 13.496162668195673, -27.59686687743839 11.892363411435438, -28.190778623577238 10.260604299770092 C-28.784690369716085 8.628845188104746, -29.242695694295776 6.919546046636289, -29.544232590366235 5.209445330007948 C-29.845769486436694 3.4993446133796065, -29.999999999999996 1.7364817766693452, -30 4.3641969283947696e-14 C-30.000000000000004 -1.7364817766692577, -29.845769486436705 -3.4993446133795194, -29.54423259036625 -5.209445330007862 C-29.242695694295794 -6.919546046636204, -28.784690369716113 -8.628845188104663, -28.19077862357727 -10.26060429977001 C-27.596866877438426 -11.892363411435358, -26.84900300186784 -13.496162668195595, -25.980762113533192 -14.999999999999947 C-25.112521225198545 -16.5038373318043, -24.09752226405888 -17.953406075001233, -22.981333293569385 -19.283628290596127 C-21.86514432307989 -20.61385050619102, -20.613850506191113 -21.8651443230798, -19.283628290596226 -22.9813332935693 C-17.95340607500134 -24.0975222640588, -16.503837331804405 -25.11252122519847, -15.000000000000057 -25.980762113533125 C-13.496162668195709 -26.84900300186778, -11.892363411435475 -27.596866877438377, -10.260604299770131 -28.190778623577227 C-8.628845188104787 -28.784690369716078, -6.91954604663633 -29.242695694295765, -5.209445330007989 -29.544232590366228 C-3.4993446133796473 -29.84576948643669, -1.736481776669387 -29.999999999999996, -8.544696836917437e-14 -30 C1.736481776669216 -30.000000000000004, 3.4993446133794777 -29.84576948643671, 5.20944533000782 -29.544232590366256 C6.919546046636162 -29.242695694295804, 8.628845188104622 -28.784690369716127, 10.26060429976997 -28.190778623577287 C11.892363411435317 -27.596866877438448, 13.496162668195556 -26.849003001867857, 14.99999999999991 -25.98076211353321 C16.503837331804263 -25.112521225198563, 17.9534060750012 -24.0975222640589, 19.283628290596095 -22.98133329356941 C20.61385050619099 -21.86514432307992, 21.865144323079768 -20.613850506191152, 22.981333293569268 -19.28362829059627 C24.097522264058767 -17.953406075001386, 25.11252122519844 -16.503837331804455, 25.980762113533096 -15.000000000000107 C26.849003001867754 -13.496162668195758, 27.59686687743835 -11.892363411435527, 28.190778623577206 -10.260604299770183 C28.78469036971606 -8.628845188104838, 29.24269569429575 -6.919546046636383, 29.544232590366217 -5.209445330008043 C29.845769486436684 -3.4993446133797024, 29.924038765061034 -0.8682408883348144, 30 -1.405746437499029e-13 C30.075961234938966 0.8682408883345333, 30.07596123493896 -0.8682408883346749, 30 0"></path><g><path style="" fill="#ECECFF" stroke-width="0" stroke="none" d=""></path><path style="" fill="none" stroke-width="1.3" stroke="#9370DB" d="M-21.213203435596427 21.213203435596423 C-8.686325110276268 8.686325110276266, 3.84055321504389 -3.84055321504389, 21.213203435596427 -21.213203435596423 M-21.213203435596427 21.213203435596423 C-9.64737215977315 9.647372159773148, 1.9184591160501263 -1.9184591160501263, 21.213203435596427 -21.213203435596423 M21.213203435596427 21.213203435596423 C10.144440914291915 10.144440914291913, -0.9243216070125975 -0.9243216070125975, -21.213203435596427 -21.213203435596423 M21.213203435596427 21.213203435596423 C10.08803283737196 10.088032837371959, -1.0371377608525059 -1.0371377608525059, -21.213203435596427 -21.213203435596423"></path></g></g></g></g></g></g></svg>